<?xml version="1.0" encoding="UTF-8" standalone="no"?>
<!-- Created with Inkscape (http://www.inkscape.org/) -->

<svg
   width="164.99442mm"
   height="105.50215mm"
   viewBox="0 0 164.99441 105.50215"
   version="1.1"
   id="svg1"
   xml:space="preserve"
   inkscape:version="1.3 (0e150ed6c4, 2023-07-21)"
   sodipodi:docname="fuck_da_police.svg"
   xmlns:inkscape="http://www.inkscape.org/namespaces/inkscape"
   xmlns:sodipodi="http://sodipodi.sourceforge.net/DTD/sodipodi-0.dtd"
   xmlns="http://www.w3.org/2000/svg"
   xmlns:svg="http://www.w3.org/2000/svg"><sodipodi:namedview
     id="namedview1"
     pagecolor="#ffffff"
     bordercolor="#000000"
     borderopacity="0.25"
     inkscape:showpageshadow="2"
     inkscape:pageopacity="0.0"
     inkscape:pagecheckerboard="0"
     inkscape:deskcolor="#d1d1d1"
     inkscape:document-units="mm"
     inkscape:zoom="1.0368618"
     inkscape:cx="265.70562"
     inkscape:cy="199.15866"
     inkscape:window-width="1920"
     inkscape:window-height="1019"
     inkscape:window-x="0"
     inkscape:window-y="30"
     inkscape:window-maximized="1"
     inkscape:current-layer="layer1" /><defs
     id="defs1" /><g
     inkscape:label="Layer 1"
     inkscape:groupmode="layer"
     id="layer1"
     transform="translate(-25.30556,-168.33033)"><path
       id="path63"
       style="fill:#ffffff"
       d="m 144.04998,168.33112 c -0.8971,0.0163 -1.47501,0.29219 -2.05414,0.91674 -0.79212,0.85428 -0.83523,2.18013 -0.11678,3.58841 0.4934,0.96713 0.49684,1.03706 0.0816,1.6707 -0.23828,0.36368 -0.50073,0.98984 -0.58291,1.39165 -0.15662,0.76578 -0.33598,0.91157 -1.76164,1.42885 -0.48072,0.17442 -1.7839,1.19795 -2.89595,2.2748 -2.32666,2.253 -2.84789,2.35048 -2.84789,0.53175 0,-1.46917 -0.58754,-2.5407 -1.63194,-2.97708 -1.61019,-0.67278 -3.01115,-0.33298 -5.22656,1.26814 -2.32201,1.67818 -2.93273,3.55405 -2.62723,8.07186 0.0992,1.46641 0.0997,2.7568 5.2e-4,2.867 -0.0991,0.1102 -2.13574,0.23249 -4.5253,0.27182 -4.91463,0.0809 -5.1995,0.16237 -7.25124,2.08153 -0.96321,0.90098 -1.4316,1.15308 -2.33319,1.2547 -1.1206,0.12631 -1.39082,-0.0748 -0.84078,-0.62477 0.15891,-0.15891 0.33831,-1.37964 0.40204,-2.7342 0.10457,-2.22257 0.057,-2.57931 -0.52141,-3.88038 -0.86939,-1.9559 -2.01426,-3.07909 -3.30884,-3.24631 -2.02204,-0.26117 -3.24466,0.73619 -3.6034,2.94039 -0.27016,1.65992 -0.48443,1.9589 -1.43816,2.00349 -0.37552,0.0176 -0.9666,0.0494 -1.313097,0.0708 -0.346509,0.0215 -1.21156,0.42244 -1.92288,0.8909 -1.395638,0.91914 -1.430502,0.91079 -2.160591,-0.5271 -0.47765,-0.9407 -0.5113,-1.78697 -0.12299,-3.08302 0.24504,-0.81787 0.21016,-1.09324 -0.262,-2.0686 -0.632169,-1.30588 -1.26615,-1.78864 -2.648417,-2.01642 -0.728335,-0.12002 -1.199876,-0.0451 -1.767334,0.28061 -0.893843,0.51308 -2.452058,2.20131 -2.847371,3.08508 -0.148991,0.33308 -0.432867,0.88653 -0.630969,1.2299 -0.233144,0.40412 -0.36142,1.35102 -0.363803,2.68459 -0.002,1.13313 -0.06615,2.06034 -0.14211,2.06034 -0.07596,0 -0.551462,-0.28088 -1.056783,-0.62425 -1.365963,-0.9282 -3.49184,-0.8921 -4.576981,0.0775 -0.635831,0.56812 -0.808336,0.94503 -0.907955,1.98179 -0.104635,1.08896 -0.299359,1.47843 -1.303797,2.60708 -0.64952,0.72984 -1.369238,1.6925 -1.599385,2.13889 -0.771248,1.49589 -1.557033,0.87083 -1.11156,-0.88419 0.406851,-1.60287 -0.268514,-3.5337 -2.189014,-6.25905 -0.544944,-0.77332 -1.817892,-1.28519 -3.196187,-1.28519 -2.01647,0 -2.839524,1.21651 -3.20859,4.74235 -0.126358,1.20715 -0.889275,0.89925 -2.899048,-1.16996 -2.834466,-2.91829 -5.069433,-3.81422 -6.895186,-2.76365 -1.355699,0.78009 -1.758976,2.10155 -1.244369,4.07727 0.347636,1.33466 0.50187,4.87816 0.224276,5.15575 -0.07475,0.0747 -0.696692,-0.0286 -1.381828,-0.22944 -2.322452,-0.6808 -4.204209,0.46214 -4.28966,2.60501 -0.0226,0.56666 0.109338,1.31097 0.293005,1.65416 0.357662,0.6683 0.248094,1.50381 -0.293522,2.24431 -0.324112,0.44312 -0.363411,0.44182 -1.196826,-0.0382 -0.474028,-0.27307 -1.20286,-0.56682 -1.61954,-0.65319 -0.838888,-0.17389 -2.700483,0.38277 -3.401859,1.01751 -0.627662,0.56803 -1.574875,2.47844 -2.057239,4.14807 -0.228166,0.78975 -0.552519,1.43661 -0.72037,1.43763 -0.167849,0.001 -0.954772,0.51829 -1.74873,1.1498 -1.759633,1.3996 -2.294838,2.4786 -1.920296,3.86954 0.21795,0.80939 0.177583,1.11937 -0.255799,1.96887 -0.282859,0.55445 -0.973206,1.34023 -1.534273,1.74666 -1.250203,0.90564 -3.359137,3.28044 -3.600814,4.05453 -0.09775,0.3131 -0.477122,0.91221 -0.842842,1.33171 -0.83453,0.95726 -1.079357,1.6213 -1.744597,4.73149 -0.57203,2.6744 -0.684021,2.84304 -3.132108,4.71599 -2.623048,2.00681 -2.778993,7.35481 -0.304891,10.44691 1.039493,1.29915 1.804009,2.49799 3.026689,4.74596 0.35276,0.64857 0.976695,1.4273 1.386995,1.73065 0.410299,0.30335 0.816095,0.77242 0.901754,1.04231 0.245885,0.77472 2.106209,2.65996 3.150195,3.19257 0.660605,0.33701 1.578995,0.50704 3.008085,0.55707 1.695066,0.0594 2.356545,0.21195 3.758427,0.86662 0.935694,0.43696 2.003337,0.86876 2.372465,0.95963 0.369128,0.0909 0.895773,0.30021 1.170471,0.46508 0.2747,0.16486 1.214353,0.55874 2.088245,0.8754 1.225457,0.44406 1.74945,0.7976 2.291333,1.54565 0.82676,1.1413 1.460038,1.66407 2.987414,2.46703 0.922989,0.48523 1.525396,0.59567 3.371371,0.61805 1.801234,0.0218 2.699964,0.17997 4.527372,0.79633 1.25411,0.42299 2.490382,0.88789 2.747119,1.03301 0.256737,0.14513 1.02891,0.42814 1.715658,0.62891 0.686748,0.20078 2.426145,0.78054 3.865397,1.28881 3.884433,1.37178 7.510525,1.73734 11.977047,1.20716 1.571306,-0.18651 2.872325,-0.31377 2.891296,-0.28267 1.935045,3.17297 5.386796,4.92126 11.857674,6.00532 1.010389,0.16927 5.519143,-0.0679 6.795973,-0.3576 3.47133,-0.78749 5.8962,-2.19728 8.86147,-5.15111 1.82162,-1.81458 2.42195,-2.71532 4.19768,-6.29522 1.32215,-2.66549 1.8712,-4.49493 1.8712,-6.23787 0,-0.52582 0.14044,-1.0723 0.31213,-1.21388 0.17168,-0.14158 2.72829,-1.22478 5.68131,-2.4076 2.95302,-1.18281 5.93093,-2.42102 6.61768,-2.75125 0.68675,-0.33022 2.26028,-1.01032 3.49643,-1.51154 1.23615,-0.50121 2.58466,-1.06367 2.99671,-1.25005 0.41205,-0.18639 1.53556,-0.69585 2.49701,-1.13223 0.96145,-0.43637 2.64722,-1.18846 3.74602,-1.67122 1.09879,-0.48275 2.11006,-0.9634 2.24741,-1.06763 0.13735,-0.10423 1.09274,-0.47216 2.12287,-0.81804 1.93167,-0.64858 4.57646,-1.70448 8.20053,-3.2737 1.1453,-0.49591 2.1647,-0.90176 2.2655,-0.90176 0.1008,0 1.00844,0.96102 2.01693,2.13579 1.00849,1.17477 2.04558,2.24953 2.30425,2.38797 0.25868,0.13844 1.87581,0.37296 3.59358,0.52141 2.4024,0.20761 3.35913,0.19939 4.14703,-0.0367 5.68985,-1.70472 8.72649,-5.87822 9.90948,-13.61932 0.13603,-0.89019 0.32151,-1.10394 1.77508,-2.04742 3.41822,-2.21869 3.51357,-2.30491 4.17546,-3.77445 0.65823,-1.46145 1.08729,-4.44586 0.80201,-5.57589 -0.1033,-0.40918 0.14792,-1.18537 0.80771,-2.49597 0.5266,-1.04606 0.95756,-2.09249 0.95756,-2.32595 0,-0.23347 0.11456,-0.63927 0.25477,-0.90124 0.6817,-1.27377 0.9321,-4.89578 0.53433,-7.73183 -0.1979,-1.41104 -0.15076,-1.86778 0.36225,-3.49591 0.74651,-2.36921 0.78117,-4.06088 0.0971,-4.74493 -0.62392,-0.62391 -2.99996,-0.69 -4.10414,-0.1142 -0.98422,0.51324 -1.20586,0.37813 -1.60507,-0.97927 -0.45897,-1.56062 -1.47658,-2.40244 -2.90473,-2.40244 -0.5963,0 -1.26224,-0.0685 -1.4795,-0.15193 -0.60826,-0.23341 -0.47748,-1.02176 0.19741,-1.19114 0.69514,-0.17447 1.70039,-1.42498 2.11305,-2.62775 0.69018,-2.01168 0.25526,-3.53249 -1.78336,-6.23269 -0.97379,-1.28979 -1.11635,-1.3758 -2.73265,-1.64848 l -0.93637,-0.15761 v -1.85002 c 0,-2.3498 -0.29937,-3.00502 -1.59784,-3.49694 -1.24838,-0.47294 -3.33195,-0.1794 -3.84421,0.54157 -0.54534,0.7675 -2.68913,4.42468 -2.86649,4.89014 -0.0916,0.24036 -0.42304,0.43769 -0.73639,0.43821 -1.41749,0.002 -2.69822,1.3937 -3.04478,3.30781 -0.36108,1.99435 -1.19225,0.66585 -1.09399,-1.74873 0.0586,-1.43924 -0.018,-1.81013 -0.52038,-2.51561 -0.70246,-0.98651 -1.40896,-1.29191 -2.98638,-1.29191 h -1.1746 l -0.80564,-1.46554 c -0.90885,-1.65321 -2.69159,-3.42821 -3.69641,-3.6804 -0.57279,-0.14376 -1.44159,-0.023 -3.08612,0.4284 -0.21361,0.0586 -0.5939,-0.32349 -0.95085,-0.9555 -0.32708,-0.57912 -1.34665,-1.84623 -2.26601,-2.81585 -1.49776,-1.57962 -1.79315,-1.77874 -2.84014,-1.91306 -0.38186,-0.049 -0.7164,-0.0721 -1.01544,-0.0667 z" /><path
       style="fill:#000000"
       d="m 96.888882,271.14194 c -2.35648,-0.19025 -4.644255,-0.82964 -6.742625,-1.88443 -1.85415,-0.93203 -2.752825,-1.69926 -3.749918,-3.20145 -0.512337,-0.77187 -1.082612,-1.35098 -1.330367,-1.35098 -0.238501,0 -1.103416,0.19007 -1.922035,0.42237 -1.114589,0.3163 -2.335096,0.41096 -4.859711,0.37692 -4.319807,-0.0583 -4.993272,-0.21127 -12.736076,-2.8939 -6.969186,-2.4146 -7.272983,-2.49541 -8.325133,-2.21457 -1.654339,0.44156 -3.955655,-0.68132 -4.922704,-2.40195 -0.499782,-0.88925 -0.813978,-1.0918 -3.115723,-2.0086 -1.407939,-0.56079 -2.630764,-1.01962 -2.717388,-1.01962 -0.08662,0 -1.363423,-0.58836 -2.837329,-1.30747 -2.464578,-1.20245 -2.80623,-1.30276 -4.253475,-1.24887 -1.774409,0.0661 -2.705173,-0.29546 -3.529246,-1.3709 -0.291942,-0.38099 -0.918153,-1.19841 -1.391579,-1.81648 -1.395189,-1.82147 -3.373323,-4.71192 -3.546814,-5.18262 -0.08844,-0.23993 -0.520288,-0.88574 -0.959672,-1.43514 -1.278026,-1.59803 -1.610257,-2.45573 -1.610257,-4.15711 0,-1.99049 0.771647,-3.23609 2.386902,-3.85297 0.596653,-0.22786 1.245788,-0.59779 1.442522,-0.82206 0.465497,-0.53065 1.102946,-2.78148 1.320496,-4.66267 0.301673,-2.60861 1.973328,-5.33805 5.220615,-8.52412 2.190846,-2.14954 2.868491,-3.47909 2.86623,-5.6236 -6.79e-4,-0.6443 0.120274,-1.24656 0.268785,-1.33834 0.381189,-0.23559 1.657807,1.05958 2.154857,2.18617 0.76367,1.73089 2.022855,0.88981 1.706621,-1.13996 -0.45961,-2.95003 -0.435758,-3.9443 0.137384,-5.72678 0.618453,-1.92339 1.679279,-3.38509 2.215986,-3.05339 0.240347,0.14854 0.281804,0.64282 0.162017,1.93168 -0.117603,1.26536 -0.05626,2.0405 0.227668,2.87679 0.535686,1.57783 1.75095,3.06289 2.506435,3.06289 0.694028,0 0.725669,-0.0994 1.11229,-3.49452 0.217806,-1.91266 0.431182,-2.66059 1.104284,-3.87077 1.402234,-2.52109 1.668411,-3.58564 1.272139,-5.08784 -0.3412,-1.29343 -0.230157,-1.64877 0.435419,-1.39337 0.44659,0.17137 2.149126,3.73601 2.336825,4.89266 0.07499,0.46211 -0.04246,1.70582 -0.260992,2.76381 -0.497603,2.40905 -0.498588,3.05638 -0.0054,3.54957 0.295847,0.29584 0.510127,0.32867 0.874044,0.13391 0.383914,-0.20546 0.482111,-0.52959 0.482111,-1.59133 0,-2.33924 1.280911,-4.99425 2.336841,-4.8437 0.468103,0.0667 0.551219,0.2793 0.664539,1.6995 0.157895,1.97884 0.544256,2.747 1.381669,2.747 0.658736,0 0.771359,-0.18449 1.872764,-3.06776 0.303495,-0.7945 0.742002,-1.54633 0.97446,-1.67073 0.773472,-0.41395 1.734047,-2.10972 2.109752,-3.72449 0.329159,-1.41471 0.328723,-1.76136 -0.0038,-3.0595 -0.581478,-2.26973 0.06166,-2.66668 1.460516,-0.90144 2.09196,2.63988 2.413402,4.51572 1.427941,8.33308 -0.56243,2.17867 -0.569237,2.30562 -0.157319,2.93429 0.948431,1.44749 2.0749,0.21364 1.958024,-2.14467 -0.0443,-0.89382 0.09115,-1.96121 0.346393,-2.72966 0.539222,-1.62345 2.243108,-3.45875 3.211087,-3.45875 h 0.687001 l -0.173228,1.61759 c -0.200602,1.87318 -0.03979,2.75758 0.542025,2.98084 0.91282,0.35028 1.390434,-0.61512 2.089671,-4.22384 0.375712,-1.93902 0.966563,-3.07225 2.771962,-5.31649 1.156823,-1.43801 1.472445,-2.01453 1.472445,-2.68958 0,-1.06682 0.588254,-1.16138 1.072977,-0.17248 0.859723,1.75393 1.010477,2.72511 0.676705,4.35943 -0.176526,0.86437 -0.52026,1.90871 -0.763852,2.32076 -0.683381,1.15598 -0.76105,3.37132 -0.118199,3.37132 0.406709,0 0.864761,-0.81259 1.37972,-2.44762 0.304316,-0.96623 1.233394,-2.10352 2.998669,-3.67069 0.309423,-0.2747 0.7883,-1.00034 1.06417,-1.61254 0.47518,-1.05448 0.484564,-1.26082 0.178282,-3.91991 -0.292069,-2.5357 -0.28205,-2.91485 0.103712,-3.92494 0.601903,-1.57606 1.831025,-3.20344 2.344762,-3.1045 0.359139,0.0692 0.408488,0.36152 0.339609,2.01195 -0.0784,1.87847 -0.04772,1.99672 1.127576,4.34628 1.03969,2.07846 1.22559,2.67942 1.33304,4.30946 l 0.12486,1.8942 1.41403,-2.14888 c 1.53017,-2.32538 2.98726,-3.71971 3.887138,-3.71971 0.7062,0 0.70812,0.22858 0.0143,1.69936 -0.40457,0.85761 -0.555468,1.64844 -0.561888,2.94464 -0.0103,2.07973 0.341878,2.72412 1.346188,2.46314 0.35357,-0.0919 1.42949,-0.31871 2.39094,-0.50409 0.96145,-0.18538 2.25378,-0.44439 2.87186,-0.57558 0.61807,-0.1312 1.9666,-0.36848 2.99672,-0.5273 3.18092,-0.49042 3.71097,-0.70342 4.96107,-1.99361 0.74707,-0.77103 1.52348,-1.30272 2.16059,-1.4796 0.56839,-0.1578 3.07473,-0.27668 5.84988,-0.27748 l 4.85541,-0.001 1.98457,-2.06025 c 2.0747,-2.1538 2.89893,-3.52529 2.90815,-4.83908 0.007,-1.05394 0.49792,-1.44364 1.199,-0.95258 0.71099,0.49799 1.04783,1.81862 0.8796,3.44859 -0.11777,1.14106 -0.0712,1.35473 0.32858,1.50815 0.76061,0.29187 1.2498,-0.60649 1.43892,-2.64247 0.0971,-1.04585 0.38931,-2.2571 0.68218,-2.8282 0.5597,-1.0914 3.58029,-4.1205 4.10892,-4.1205 0.63989,0 0.63415,0.52252 -0.0213,1.9387 -1.34628,2.90886 -1.02519,7.30119 0.53374,7.30119 0.75125,0 0.99521,-0.51218 1.20539,-2.53059 0.11584,-1.11251 0.3316,-1.82735 0.65697,-2.17659 0.55893,-0.59994 1.23009,-0.46068 1.23009,0.25524 0,0.71607 0.43243,1.43244 1.67306,2.77158 0.60711,0.65531 1.26549,1.57837 1.46306,2.05123 0.39797,0.95246 1.0026,1.37722 1.96045,1.37722 0.84133,0 1.39633,-1.08324 1.39633,-2.72535 0,-1.33383 0.54596,-2.96411 1.80531,-5.39077 0.90707,-1.74786 1.0061,-3.34234 0.30425,-4.89877 -0.84923,-1.88326 0.59918,-1.9662 1.87797,-0.10753 1.83763,2.67089 2.19952,5.0323 1.26464,8.25196 -0.61752,2.12667 -0.66732,4.17537 -0.11493,4.72776 0.51944,0.51944 0.75294,0.49569 1.39002,-0.14139 0.48228,-0.48228 0.51968,-0.71737 0.38738,-2.43484 -0.11515,-1.49475 -0.0444,-2.21023 0.33107,-3.34797 0.63544,-1.92547 1.39459,-2.9729 2.08348,-2.87468 0.48415,0.069 0.5469,0.26825 0.65989,2.09498 0.10911,1.76407 0.23883,2.20507 1.02836,3.49618 1.12747,1.84371 1.795,3.83325 1.57724,4.70086 -0.24045,0.95806 0.10999,2.89854 0.55426,3.06903 0.65001,0.24943 1.38671,-0.74859 1.34943,-1.82809 -0.0184,-0.53249 -0.0452,-1.27843 -0.0595,-1.65766 -0.0144,-0.37922 0.33552,-1.47401 0.77748,-2.43287 0.44197,-0.95885 0.9013,-2.43474 1.02074,-3.27976 0.11945,-0.84503 0.3343,-1.65354 0.47746,-1.7967 0.46889,-0.46889 1.36734,0.72107 1.86843,2.47465 0.46425,1.62464 0.46515,1.73409 0.0315,3.87007 -0.50391,2.48225 -0.42446,3.09473 0.55198,4.25491 0.5108,0.60693 0.71882,1.17187 0.81169,2.20436 0.12126,1.34831 0.14643,1.38829 0.87404,1.38829 0.62432,0 0.83242,-0.16648 1.24864,-0.99891 0.42555,-0.85111 0.48929,-1.40937 0.43078,-3.77308 -0.0574,-2.31718 0.0132,-2.9651 0.42815,-3.9332 0.35859,-0.83657 0.63824,-1.15902 1.00514,-1.15902 0.42996,0 0.50833,0.16043 0.50833,1.0406 0,0.71771 0.26826,1.52863 0.86454,2.61344 1.21292,2.20663 1.71565,4.07513 1.50618,5.5981 -0.14335,1.04228 -0.10166,1.26032 0.26806,1.4022 0.56745,0.21775 1.38631,-0.78801 1.81007,-2.2232 0.46728,-1.58255 0.69378,-1.86789 1.22154,-1.53883 0.78074,0.48679 1.09675,2.18977 0.77802,4.19277 -0.43555,2.73721 -0.40909,3.49671 0.12551,3.60246 0.56979,0.11271 1.35892,-0.58397 1.78038,-1.57181 0.71632,-1.67897 3.53167,-3.94726 3.95822,-3.18909 0.058,0.10302 -0.16761,1.03013 -0.50126,2.06025 -0.47746,1.47414 -0.57696,2.192 -0.4673,3.37131 0.0766,0.8241 0.21141,2.25513 0.29953,3.18006 0.22492,2.36075 -0.23528,4.37764 -1.67419,7.33748 -1.22668,2.52327 -1.22795,2.52852 -1.06796,4.42116 0.23054,2.72726 -0.17292,3.98079 -1.63707,5.0863 -0.63027,0.47589 -1.87641,1.29179 -2.76918,1.81311 -1.83267,1.07015 -2.23859,1.65658 -2.24386,3.24172 -0.002,0.60833 -0.11225,1.45115 -0.24495,1.87296 -0.1327,0.4218 -0.48101,1.60782 -0.77404,2.6356 -0.58554,2.05376 -2.0223,4.34002 -3.37654,5.37295 -1.92829,1.47078 -4.81658,2.26383 -6.83714,1.8773 -2.84145,-0.54356 -4.68067,-1.90593 -5.87863,-4.35447 -0.79041,-1.61554 -0.96259,-1.65781 -3.02676,-0.74303 -0.80686,0.35757 -2.5325,1.03639 -3.83476,1.50849 -1.30227,0.4721 -2.81936,1.11733 -3.37132,1.43384 -0.55196,0.31651 -1.67782,0.83227 -2.50192,1.14614 -1.70939,0.65104 -4.63587,1.86414 -5.74372,2.38092 -0.61315,0.28602 -4.34693,1.92807 -6.4929,2.85547 -0.2747,0.11871 -2.63462,1.13958 -5.24427,2.26858 -5.11779,2.2141 -6.02285,2.59806 -10.29279,4.36661 -3.61761,1.49836 -3.98808,1.79488 -4.12892,3.30466 -0.42042,4.50679 -3.41101,10.25689 -6.9016,13.2699 -3.23671,2.79388 -7.04045,3.88081 -12.140098,3.46908 z m 0.37459,-3.32522 c 0,-0.0742 -0.20993,-0.55175 -0.46652,-1.06134 -1.14812,-2.2802 -1.5399,-3.93251 -1.58866,-6.70025 -0.0565,-3.20796 0.48406,-5.58264 2.12502,-9.33476 0.86829,-1.98539 1.32405,-2.66164 2.793828,-4.14542 1.35442,-1.36733 2.09913,-1.9032 3.25464,-2.34193 2.09948,-0.79714 3.62914,-0.91486 5.01422,-0.3859 1.31419,0.5019 1.67593,0.34174 0.92476,-0.40942 -0.43763,-0.43763 -0.9196,-0.54675 -2.86414,-0.64847 -2.33672,-0.12222 -2.33903,-0.12175 -4.32962,0.88594 -2.852688,1.4441 -4.430438,3.23746 -6.198198,7.0452 -1.2168,2.62099 -1.62086,3.99472 -1.94163,6.60121 -0.40667,3.30454 -0.1611,5.97442 0.73034,7.94046 0.73518,1.62139 1.61621,2.68949 2.21846,2.68949 0.18013,0 0.3275,-0.0607 0.3275,-0.13481 z m 7.581158,-5.13871 c 1.36318,-0.62111 3.1571,-5.36814 3.1571,-8.35426 0,-2.47577 -0.57843,-3.60338 -1.84843,-3.60338 -0.68581,0 -2.48682,1.88908 -3.08346,3.23426 -1.19857,2.70226 -1.22296,7.14295 -0.0461,8.39566 0.63762,0.67872 0.93361,0.73199 1.82089,0.32772 z M 56.21384,258.6492 c -1.264136,-1.75357 -2.331483,-3.95667 -3.244989,-6.69795 -0.854512,-2.56425 -1.146772,-3.15767 -1.708743,-3.46951 -1.05042,-0.58288 -1.290191,-0.12596 -0.790861,1.50713 1.95579,6.39651 3.607476,9.19841 5.432442,9.2155 0.697548,0.007 0.706105,-0.009 0.312151,-0.55517 z m 20.600966,-1.86443 c 0.556291,-0.55629 -0.04545,-0.88229 -1.31718,-0.71359 -2.343368,0.31086 -6.678497,-0.81729 -11.073248,-2.88164 -0.549399,-0.25807 -2.309463,-0.9754 -3.911253,-1.59406 -3.042893,-1.17526 -4.609341,-1.41321 -4.867879,-0.73947 -0.214177,0.55813 -0.06118,0.63141 1.82835,0.87568 2.012724,0.26019 2.936034,0.59402 8.074554,2.91938 4.006731,1.81319 5.990674,2.50724 7.491809,2.62089 1.326208,0.10041 3.46303,-0.17538 3.774847,-0.48719 z m -38.837935,-6.62628 c -0.408449,-2.59467 -0.449322,-4.41508 -0.151588,-6.75136 0.299468,-2.34989 0.290853,-2.52992 -0.136011,-2.84205 -0.250652,-0.18328 -0.552364,-0.33324 -0.67047,-0.33324 -0.38912,0 -0.902021,1.62185 -1.210696,3.82836 -0.266108,1.90222 -0.248364,2.43618 0.142918,4.3007 0.323609,1.54205 0.590402,2.22945 0.967928,2.49388 0.955574,0.66931 1.243099,0.48007 1.057919,-0.69629 z m 40.025786,-0.046 c 0.714256,-0.36936 1.426533,-1.07876 1.253631,-1.24857 -0.05391,-0.053 -1.46881,-0.2129 -3.144223,-0.35545 -1.675412,-0.14255 -3.361069,-0.42197 -3.745904,-0.62094 -0.384835,-0.19898 -1.598717,-0.60714 -2.697516,-0.90704 -1.568392,-0.42807 -2.14543,-0.48865 -2.684565,-0.28184 -0.377712,0.14488 -0.686749,0.38585 -0.686749,0.53547 0,0.36222 3.85057,2.12634 5.946848,2.72453 2.026416,0.57825 4.794747,0.65221 5.758478,0.15384 z m -21.782016,-2.58675 c 0.179612,-0.23454 0.857653,-1.49402 1.506758,-2.79884 0.990983,-1.99207 1.182017,-2.60616 1.191588,-3.8304 0.0098,-1.25925 -0.07371,-1.52798 -0.61292,-1.9714 -0.815448,-0.67057 -13.233965,-6.73854 -16.009703,-7.82271 -2.453022,-0.95811 -3.5681,-0.94342 -4.510237,0.0594 -0.506838,0.53951 -0.577216,0.88488 -0.617211,3.02894 -0.07815,4.18927 0.560223,5.47275 3.450447,6.93734 0.67174,0.34039 1.821289,1.00268 2.554552,1.47174 0.733263,0.46906 1.656634,0.92225 2.051936,1.00707 l 0.718731,0.15423 -0.728139,-0.62085 c -0.400477,-0.34147 -1.018551,-0.7697 -1.373499,-0.95162 -0.354947,-0.18192 -1.083634,-0.64045 -1.619303,-1.01895 -0.53567,-0.37851 -1.097556,-0.68888 -1.248635,-0.68973 -0.15108,-8.4e-4 -0.84927,-0.53463 -1.551534,-1.1862 l -1.276843,-1.18467 0.11249,-2.747 c 0.09681,-2.36399 0.182937,-2.80792 0.617759,-3.18401 0.908003,-0.78536 1.790183,-0.57735 6.19366,1.46042 4.124968,1.90889 10.284173,5.08031 11.173343,5.75324 1.0571,0.80002 1.177323,1.39423 0.6992,3.45585 -0.553603,2.38709 -1.238118,3.82132 -1.986564,4.16233 -0.602113,0.27434 -2.042783,0.0177 -3.705237,-0.65998 -0.240362,-0.098 -0.437022,-0.0713 -0.437022,0.0592 0,0.13055 0.730176,0.57662 1.622613,0.99127 1.788542,0.83099 3.207366,0.87797 3.78377,0.12528 z m 24.110373,-0.64859 c 0.65278,-0.42851 1.678183,-2.75388 1.356296,-3.07577 -0.07919,-0.0792 -1.15573,0.0614 -2.392315,0.31245 l -2.248335,0.45642 -2.065782,-0.63911 c -1.136181,-0.35151 -2.608919,-0.84966 -3.272752,-1.10701 -1.171026,-0.45397 -1.216968,-0.45423 -1.542734,-0.009 -0.446371,0.61045 -0.735192,2.39725 -0.435877,2.69656 0.282586,0.28259 3.515909,1.40821 4.933669,1.71756 1.641146,0.3581 4.893528,0.15589 5.66783,-0.35238 z m 47.773736,-0.53589 c 2.27148,-1.05801 6.58967,-2.98071 8.49072,-3.78056 3.27454,-1.37772 9.25714,-4.14612 9.54217,-4.41555 0.16624,-0.15716 0.40835,-1.4155 0.538,-2.79632 0.12966,-1.38081 0.41069,-2.92929 0.62452,-3.44106 0.39268,-0.93981 0.61838,-2.78669 0.37081,-3.03427 -0.0738,-0.0738 -0.65214,0.0578 -1.28517,0.29239 -1.10112,0.4081 -1.17313,0.40654 -1.66232,-0.0362 -0.42291,-0.38273 -0.512,-0.76918 -0.51516,-2.23457 -0.005,-2.091 -0.14657,-2.3936 -1.04321,-2.2222 -1.05559,0.20179 -1.50014,0.88689 -1.53979,2.37296 l -0.0353,1.32387 1.1862,0.0761 c 1.2598,0.0808 1.44713,0.34563 0.83589,1.18155 -0.52894,0.72338 -2.18618,0.65039 -3.02008,-0.13302 -0.54854,-0.51533 -0.68834,-0.55391 -0.88429,-0.24405 -0.12802,0.20242 -0.23448,0.78946 -0.23658,1.30452 -0.003,0.74828 -0.0981,0.93648 -0.4727,0.93648 -0.79773,0 -0.93908,-0.52184 -0.99849,-3.68623 -0.0485,-2.58376 0.004,-3.08534 0.33353,-3.21196 0.5409,-0.20756 1.13384,0.34685 1.13384,1.06018 0,0.92689 0.42889,0.70041 0.96386,-0.50897 0.63671,-1.43938 1.45285,-1.97861 2.65372,-1.75332 0.74595,0.13994 0.97514,0.0808 1.25944,-0.32513 0.61407,-0.87671 2.86451,-0.90902 2.86451,-0.0411 0,0.117 -0.33713,0.38707 -0.74918,0.60015 -0.75422,0.39002 -1.02996,1.12377 -0.42232,1.12377 0.17978,0 0.545,0.16071 0.81161,0.35713 0.46918,0.34565 0.45736,0.38551 -0.3681,1.24064 -0.9099,0.94261 -0.84871,1.06464 0.60313,1.2028 0.7393,0.0703 0.7495,0.0548 0.7733,-1.17735 0.0133,-0.68674 0.11522,-3.3557 0.22656,-5.93101 0.19816,-4.58359 0.19189,-4.68238 -0.2971,-4.68238 -0.60731,0 -6.59889,1.92547 -6.88647,2.21305 -0.11269,0.11269 0.24924,0.65903 0.8043,1.21408 0.5577,0.5577 1.00919,1.25112 1.00919,1.54995 0,0.62067 -1.08698,1.72625 -1.85349,1.88522 -2.77783,0.5761 -8.6015,0.57305 -11.30635,-0.006 -0.9226,-0.19748 -1.94948,0.33617 -3.26325,1.69583 l -0.81515,0.84363 0.29898,1.98227 c 0.47922,3.17728 0.35086,8.91407 -0.25773,11.51913 -0.51587,2.20815 -0.79396,7.94509 -0.41486,8.55848 0.21004,0.33985 0.71239,0.1938 3.00282,-0.87303 z m -0.87404,-5.1159 c 0,-0.28745 0.24192,-0.60589 0.56188,-0.73958 0.30904,-0.12913 2.75324,-1.09406 5.43156,-2.14429 2.67832,-1.05023 5.65632,-2.27447 6.61777,-2.72052 0.96145,-0.44605 2.16794,-0.94781 2.68108,-1.11502 0.51315,-0.16721 0.99739,-0.4082 1.07608,-0.53553 0.23295,-0.37691 1.11577,-0.26388 1.27991,0.16388 0.0866,0.22552 -0.0509,0.59184 -0.31999,0.85267 -0.66602,0.64564 -15.93774,6.7432 -16.88875,6.7432 -0.27461,0 -0.43954,-0.18942 -0.43954,-0.50481 z m 0.40199,-6.03375 c -0.27171,-0.16789 -0.40814,-0.98583 -0.52868,-3.16973 -0.15202,-2.75412 -0.12914,-2.9796 0.35569,-3.50534 0.60893,-0.66032 1.34666,-0.71734 2.1352,-0.16503 0.62002,0.43429 1.29262,0.31697 1.29262,-0.22545 0,-0.18905 0.22521,-0.54754 0.50046,-0.79665 0.41694,-0.37732 0.60644,-0.40463 1.13534,-0.16365 0.34918,0.1591 0.82633,0.62573 1.06033,1.03695 0.61918,1.08815 0.7821,0.92666 0.62275,-0.61729 -0.11806,-1.14389 -0.071,-1.39509 0.28714,-1.53251 0.70415,-0.27021 1.13114,0.42806 1.16688,1.9082 0.0508,2.10488 0.37463,2.94533 1.17033,3.03749 0.9595,0.11114 1.00255,0.8338 0.0781,1.31183 -0.98547,0.50961 -1.76153,0.49269 -2.20119,-0.048 -0.24717,-0.30395 -0.39369,-0.34579 -0.48119,-0.1374 -0.72029,1.71545 -2.27672,2.09887 -3.092,0.76172 -0.27217,-0.44639 -0.49699,-1.09256 -0.49961,-1.43593 -0.009,-1.24288 -0.37925,-1.38659 -1.21167,-0.47091 -0.68011,0.74814 -0.76946,1.02169 -0.77594,2.37571 -0.008,1.61709 -0.35419,2.24403 -1.0146,1.83598 z m 4.80313,-5.03936 c -0.23307,-0.23308 -0.29967,-0.16649 -0.29967,0.29967 0,0.46616 0.0666,0.53275 0.29967,0.29967 0.23308,-0.23308 0.23308,-0.36626 0,-0.59934 z m 11.32718,-9.69881 c -0.7334,-0.7334 0.0892,-1.55561 1.83506,-1.83425 0.76293,-0.12176 1.09144,-0.0644 1.339,0.23392 0.51254,0.61757 0.17172,1.0445 -1.1891,1.48961 -1.49917,0.49035 -1.59972,0.49596 -1.98496,0.11072 z m -96.194822,26.38339 c 0,-0.21303 -0.421415,-0.56302 -0.936477,-0.77775 -0.515061,-0.21472 -1.234766,-0.60231 -1.599344,-0.8613 -0.364577,-0.25899 -0.82842,-0.47088 -1.030762,-0.47088 -0.202341,0 -0.507791,-0.16857 -0.678776,-0.3746 -0.170985,-0.20602 -0.535637,-0.37459 -0.810336,-0.37459 -0.415645,0 -0.447288,0.0629 -0.188572,0.37459 0.170985,0.20603 0.451928,0.3746 0.624318,0.3746 0.172389,0 0.467666,0.18597 0.656171,0.41327 0.188505,0.2273 0.679868,0.57418 1.091917,0.77084 0.41205,0.19667 1.142501,0.57241 1.623226,0.83498 1.059526,0.57871 1.248635,0.59247 1.248635,0.0908 z M 122.46,246.38177 c 0.15654,-0.18861 0.21938,-0.51294 0.13964,-0.72073 -0.19888,-0.51828 0.32629,-4.25228 0.83385,-5.92868 0.52832,-1.745 0.6219,-10.26542 0.11828,-10.7706 -0.16939,-0.16993 -0.37536,-0.24158 -0.45771,-0.15924 -0.0823,0.0823 -0.19775,1.53575 -0.25646,3.2298 -0.0587,1.69405 -0.21333,3.75435 -0.3436,4.57845 -0.13027,0.8241 -0.30905,2.17262 -0.39728,2.99672 -0.0882,0.8241 -0.27116,1.7058 -0.4065,1.95934 -0.26746,0.50105 -0.33182,4.49746 -0.079,4.9065 0.21424,0.34665 0.51175,0.31456 0.84879,-0.0916 z m -55.683926,-0.99325 c 1.030036,-0.30799 1.131772,-0.41879 1.544274,-1.68187 0.571958,-1.75134 0.570373,-1.90767 -0.02257,-2.225 -1.137644,-0.60885 -2.977619,1.39866 -2.993495,3.26606 -0.0043,0.5049 0.174807,1.00591 0.348296,0.9743 0.01145,-0.002 0.517016,-0.15216 1.123491,-0.33349 z m -25.300556,-2.03507 c -0.260597,-0.19725 -0.571467,-0.29829 -0.690823,-0.22452 -0.36028,0.22266 0.03347,0.59959 0.617488,0.59112 0.529159,-0.008 0.53157,-0.0197 0.07334,-0.3666 z m 8.090485,0.13955 c 0,-0.29464 -0.487056,-0.60983 -0.665938,-0.43095 -0.178883,0.17888 0.136307,0.66594 0.43095,0.66594 0.129243,0 0.234988,-0.10575 0.234988,-0.23499 z m 3.371315,-0.51077 c 0,-0.73327 -0.55397,-0.91685 -1.244039,-0.41226 -0.418922,0.30633 -0.438303,0.41129 -0.141886,0.76845 0.517904,0.62404 1.385925,0.40095 1.385925,-0.35619 z m 28.369266,-1.76542 c 1.428283,-0.55228 2.93401,-1.15963 3.346059,-1.34968 0.41205,-0.19005 1.341411,-0.57831 2.065248,-0.8628 0.723836,-0.28449 1.882465,-0.80428 2.574731,-1.15508 0.692266,-0.35079 2.128708,-0.9586 3.192093,-1.35069 1.063387,-0.39208 2.489427,-0.96172 3.168987,-1.26587 2.27433,-1.01791 2.72674,-1.19799 4.10742,-1.63502 0.755428,-0.23912 2.497268,-0.88261 3.870768,-1.42999 2.74564,-1.09421 4.13484,-1.62189 8.24099,-3.13031 5.2217,-1.91822 10.06072,-4.13771 9.61789,-4.41139 -0.3213,-0.19858 -2.87478,0.59859 -5.62226,1.75522 -1.0988,0.46257 -3.73966,1.47902 -5.86859,2.25879 -2.12892,0.77976 -4.54503,1.66553 -5.36913,1.96837 -0.82409,0.30284 -2.30383,0.90635 -3.2883,1.34113 -0.98447,0.43478 -1.862318,0.79051 -1.950778,0.79051 -0.0885,0 -1.02483,0.40535 -2.08083,0.90077 -3.95398,1.85504 -4.494878,2.08765 -7.788563,3.34945 -4.425549,1.69542 -8.827133,3.41152 -10.286014,4.01036 -0.644039,0.26436 -1.465536,0.59264 -1.825548,0.72952 -0.904283,0.34381 -0.529947,0.83395 0.49068,0.64247 0.444548,-0.0834 1.976864,-0.60349 3.405147,-1.15576 z m -32.567044,0.10483 c 0.347377,-0.90525 -1.007259,-1.69399 -1.906335,-1.10997 -0.29167,0.18946 -0.304596,0.35656 -0.06779,0.8763 0.221274,0.48564 0.478461,0.6422 1.054979,0.6422 0.475446,0 0.821374,-0.15375 0.919142,-0.40853 z m 3.309865,-0.4488 c 0.236104,-0.28449 0.191162,-0.46374 -0.219149,-0.87405 -0.981082,-0.98108 -2.141814,-0.43861 -1.525515,0.71296 0.32153,0.60078 1.30443,0.69154 1.744664,0.16109 z m 2.836487,-0.48895 c 0.06633,-0.29971 -0.757273,-0.80231 -0.96854,-0.59104 -0.287938,0.28794 0.122408,0.97945 0.530763,0.89444 0.213695,-0.0445 0.410695,-0.18102 0.437777,-0.3034 z M 35.83102,239.10254 c 0,-0.20905 -0.533792,-0.7054 -1.186203,-1.103 -0.652412,-0.39761 -1.579524,-0.97114 -2.060248,-1.27453 -0.923345,-0.58273 -2.038242,-0.77144 -2.247543,-0.38043 -0.06867,0.1283 0.380834,0.54289 0.998908,0.92131 0.618074,0.37842 1.685657,1.02952 2.372406,1.44688 1.374997,0.83564 2.12268,0.97293 2.12268,0.38977 z m 7.845975,0.22851 c 0.810976,-0.3112 0.278278,-1.59651 -0.661676,-1.59651 -0.657901,0 -0.826058,0.68592 -0.30839,1.25794 0.505379,0.55843 0.448677,0.53864 0.970066,0.33857 z m 3.802105,-0.97537 c 0.203982,-0.53157 -0.360078,-1.12059 -1.073099,-1.12059 -0.642316,0 -0.980744,0.51027 -0.745321,1.12377 0.191282,0.49847 1.626881,0.49596 1.81842,-0.003 z m 3.031329,-0.40999 c -0.05286,-0.15857 -0.343164,-0.37971 -0.645128,-0.49141 -0.448351,-0.16586 -0.549025,-0.11299 -0.549025,0.28831 0,0.36191 0.170007,0.4914 0.645128,0.4914 0.376651,0 0.605134,-0.11998 0.549025,-0.2883 z m 99.320951,-0.9777 c 0.5494,-0.14537 1.33604,-0.41535 1.74809,-0.59997 1.24734,-0.55886 6.66286,-2.76692 7.92883,-3.2328 l 1.1862,-0.43653 v -1.47412 c 0,-2.56709 0.77001,-5.29507 2.05639,-7.28535 2.14147,-3.31326 2.38602,-4.0403 2.71978,-8.08586 0.16862,-2.04371 0.31482,-4.16534 0.3249,-4.71474 l 0.0183,-0.99891 -1.24863,0.0382 c -0.70199,0.0215 -2.34193,0.42498 -3.74591,0.92167 -1.37349,0.4859 -3.90489,1.37942 -5.62532,1.9856 -1.72043,0.60618 -3.65893,1.33698 -4.30779,1.624 l -1.17974,0.52185 -0.004,2.82347 c -0.002,1.55291 -0.0728,5.01483 -0.15657,7.69315 -0.13165,4.20727 -0.23275,5.10746 -0.74326,6.61776 -0.65876,1.94891 -0.82813,4.87072 -0.2822,4.86828 0.17169,-7.6e-4 0.76167,-0.12033 1.31107,-0.2657 z m 1.30354,-5.13036 c -0.43263,-0.43263 -0.0909,-0.8216 1.13129,-1.28772 0.72109,-0.27501 2.37865,-0.90707 3.68348,-1.40457 2.7391,-1.04437 3.24645,-1.1064 3.24645,-0.39693 0,0.57287 -0.41401,0.78247 -4.1205,2.08611 -3.02363,1.06346 -3.70653,1.23729 -3.94072,1.00311 z m 9.72607,-17.24445 c -0.61779,-0.61779 1.25185,-1.93222 2.53705,-1.78366 1.06462,0.12306 1.01901,1.00051 -0.0792,1.52422 -0.90532,0.43172 -2.15375,0.5635 -2.45781,0.25944 z m 5.94093,20.26373 c -0.2865,-1.0584 -0.38755,-2.05509 -0.29633,-2.92283 0.14745,-1.40266 1.18718,-4.72852 1.93933,-6.20347 0.83675,-1.64087 3.35782,-3.47914 4.77139,-3.47914 0.26065,0 0.91896,0.28094 1.4629,0.62432 1.18855,0.75029 1.24864,0.75717 1.24864,0.14299 0,-0.26474 -0.2961,-0.71424 -0.658,-0.99891 -0.83477,-0.65663 -2.99218,-0.70231 -4.2988,-0.091 -3.13395,1.46621 -6.14241,7.17781 -5.49662,10.43539 0.38053,1.91951 0.98971,3.9596 1.29484,4.33633 0.4809,0.59375 0.49389,-0.1397 0.0326,-1.84367 z m -123.853681,1.00468 c 0,-0.33513 -0.194343,-0.52695 -0.590688,-0.58303 -0.729912,-0.10327 -1.102265,0.23561 -0.883959,0.80451 0.241234,0.62864 1.474647,0.4434 1.474647,-0.22148 z m 2.486605,-0.39185 c -0.185446,-0.30006 -0.86338,-0.30285 -0.86338,-0.004 0,0.27063 0.541996,0.4995 0.815686,0.34444 0.105253,-0.0596 0.126715,-0.21303 0.04769,-0.34089 z m -3.984967,-1.73083 c 0.08489,-0.13735 0.03533,-0.24973 -0.110126,-0.24973 -0.145456,0 -0.264465,0.11238 -0.264465,0.24973 0,0.13735 0.04956,0.24973 0.110126,0.24973 0.06057,0 0.179578,-0.11238 0.264465,-0.24973 z m -5.36995,-1.43941 c 0.156939,-0.51315 0.404248,-1.17719 0.549574,-1.47564 0.328355,-0.67434 0.123913,-1.5422 -0.571577,-2.42637 -0.753707,-0.95819 -1.239509,-0.74244 -1.62454,0.72147 -0.523639,1.99091 -0.446239,3.0485 0.275958,3.7707 0.749174,0.74917 0.993089,0.64415 1.370585,-0.59016 z m 136.009833,0.55054 c 0.67445,-1.02935 1.34082,-3.33728 1.34082,-4.64389 0,-1.04338 -0.0687,-1.20987 -0.49946,-1.20987 -0.6474,0 -1.38936,0.75409 -1.86719,1.89769 -0.3788,0.90658 -0.51724,3.44845 -0.22877,4.2002 0.22528,0.58706 0.78081,0.47896 1.2546,-0.24413 z M 40.075998,222.70286 c 3.25847,-1.51667 11.196496,-4.07721 14.970383,-4.82894 1.160194,-0.2311 2.340154,-0.56386 2.622134,-0.73945 0.610231,-0.38001 4.68904,-1.65186 5.610153,-1.74936 0.355441,-0.0376 0.983388,-0.18447 1.395437,-0.32632 1.700238,-0.58531 3.325072,-1.04279 4.619949,-1.30077 0.755425,-0.1505 1.823007,-0.36988 2.372407,-0.48752 1.365468,-0.29238 5.425363,-1.7136 5.710962,-1.9992 0.142679,-0.14268 -0.07059,-0.57636 -0.554434,-1.12743 -0.913978,-1.04096 -0.990515,-1.79984 -0.273462,-2.71143 0.791165,-1.0058 2.134213,-1.24208 5.911331,-1.03997 l 3.302588,0.17672 2.528124,-1.96063 c 1.390469,-1.07834 3.331807,-2.60968 4.314085,-3.40297 0.982277,-0.79329 2.769257,-1.95045 3.971067,-2.57146 2.43456,-1.25801 2.3627,-1.11294 1.97033,-3.97746 l -0.17104,-1.24863 -0.64451,0.9989 c -0.35448,0.5494 -0.89033,1.48101 -1.19076,2.07024 -0.6106,1.19754 -1.42147,1.69356 -2.37664,1.45383 -0.84289,-0.21155 -1.048558,-1.09905 -0.64476,-2.78226 0.43418,-1.80987 0.20708,-3.11134 -0.853628,-4.89195 -0.492928,-0.82748 -0.896232,-1.65126 -0.896232,-1.83062 0,-0.38974 -0.700212,-1.01894 -0.905488,-0.81366 -0.221336,0.22133 -0.173847,1.1249 0.164855,3.13666 0.246835,1.46611 0.245936,2.12049 -0.0045,3.24645 -0.28241,1.26993 -0.498445,1.58723 -2.171547,3.18944 -1.649998,1.58009 -1.912425,1.96084 -2.34477,3.40196 -0.754371,2.5145 -2.063228,3.49895 -3.403694,2.56005 -1.09491,-0.76691 -0.968546,-2.74987 0.353034,-5.53999 0.337352,-0.71222 0.574345,-1.49757 0.526651,-1.74522 -0.143493,-0.7451 -0.916784,-0.67464 -1.690915,0.15407 -1.053203,1.12746 -1.740284,2.7089 -2.264047,5.21112 -0.721295,3.4459 -1.930981,4.93407 -3.519741,4.33003 -0.815728,-0.31014 -1.10655,-0.69666 -1.486014,-1.97499 -0.300542,-1.01245 -0.33789,-1.04359 -0.776025,-0.64709 -0.714606,0.64671 -1.059594,2.25862 -0.723494,3.38042 0.241877,0.80731 0.209821,1.08112 -0.226763,1.9369 -0.279655,0.54817 -0.725463,1.1128 -0.990684,1.25474 -0.848859,0.4543 -1.993206,0.301 -2.649086,-0.35488 -0.512826,-0.51283 -0.612967,-0.85463 -0.612967,-2.09219 0,-0.81356 0.168425,-1.88231 0.374278,-2.37498 0.684624,-1.63854 0.641568,-4.1125 -0.07573,-4.3516 -0.164199,-0.0547 -0.298544,0.018 -0.298544,0.16166 0,0.85501 -1.186795,3.1639 -2.251934,4.38109 -0.682621,0.78007 -1.303749,1.72161 -1.380285,2.09231 -0.312206,1.51216 -1.025198,2.92341 -1.65578,3.27735 -0.980522,0.55035 -2.426019,0.1237 -3.07386,-0.90728 -0.276897,-0.44066 -0.615825,-0.76895 -0.753175,-0.72955 -0.13735,0.0394 -0.283493,0.64697 -0.324761,1.35016 -0.05931,1.01065 -0.229462,1.44383 -0.812114,2.06756 -0.6022,0.64466 -0.862658,0.75936 -1.423328,0.62682 -0.872416,-0.20623 -1.724449,-1.23019 -1.928444,-2.31758 -0.09187,-0.48971 0.01523,-1.55934 0.254848,-2.54523 0.680271,-2.79889 0.157063,-3.59996 -1.041742,-1.59498 -1.125307,1.88206 -1.311808,2.45098 -1.478719,4.51085 -0.263499,3.25188 -0.841298,4.30282 -2.365659,4.30282 -0.770633,0 -2.113919,-1.32505 -3.118014,-3.07569 -0.477612,-0.83271 -0.769745,-1.12282 -0.949574,-0.94299 -0.268721,0.26872 -0.271398,0.6044 -0.03018,3.78557 0.139406,1.8385 0.123209,1.91105 -0.599359,2.68456 -0.749416,0.80225 -2.071859,1.10082 -2.415205,0.54527 -0.08489,-0.13735 -0.419011,-0.24973 -0.742498,-0.24973 -0.43397,0 -0.782395,0.31568 -1.329072,1.20414 -0.407503,0.66228 -1.231876,1.58939 -1.831941,2.06025 -1.20578,0.94615 -2.214799,1.95957 -2.214799,2.22445 0,0.24888 0.294015,0.50449 0.471854,0.41021 0.08385,-0.0445 0.995292,-0.47313 2.025415,-0.9526 z m 87.692532,-3.57295 c 0.38943,-0.96145 0.70867,-1.86586 0.70943,-2.00982 7.6e-4,-0.14395 0.46584,-1.2093 1.03351,-2.36745 0.56768,-1.15815 1.23286,-2.66983 1.4782,-3.35931 0.24533,-0.68947 0.84639,-2.20879 1.3357,-3.37627 0.4893,-1.16747 0.8917,-2.25499 0.89421,-2.41671 0.01,-0.62794 1.35329,-1.29448 4.1784,-2.07298 1.61886,-0.44609 3.58213,-0.86949 4.36281,-0.94088 1.39479,-0.12754 1.42821,-0.11534 1.92604,0.70328 0.27864,0.45819 0.69093,1.68118 0.9162,2.71775 0.80543,3.70625 1.63755,7.13828 1.86469,7.69083 0.24217,0.58911 0.63593,0.70002 1.20502,0.33943 0.35683,-0.22609 0.35044,-0.26929 -0.61371,-4.14776 -0.20486,-0.8241 -0.4159,-1.8355 -0.46898,-2.24755 -0.0531,-0.41205 -0.32715,-1.6482 -0.60905,-2.74699 -0.28191,-1.0988 -0.51428,-2.18168 -0.51639,-2.40639 -0.007,-0.71635 3.31028,-1.9347 6.8906,-2.53095 1.85378,-0.30872 2.63322,-0.1384 3.46554,0.7573 0.76642,0.82479 2.41671,3.94346 3.53339,6.67731 0.89164,2.18291 1.33308,2.66362 2.02673,2.20707 0.51503,-0.33899 0.53689,-0.2109 -0.44048,-2.58166 -1.93478,-4.69312 -3.49486,-7.08477 -5.38236,-8.25131 -0.91497,-0.56548 -1.20245,-0.56514 -3.72922,0.004 -0.68675,0.15478 -1.84345,0.33046 -2.57045,0.39039 -0.727,0.0599 -1.51364,0.20733 -1.74809,0.32755 -0.23445,0.12021 -1.04434,0.2882 -1.79977,0.3733 -1.51357,0.17051 -5.69672,1.25752 -10.82068,2.81178 -1.38147,0.41905 -1.59857,0.42004 -4.24536,0.0194 -4.45935,-0.67509 -7.23005,-1.14297 -7.59285,-1.28219 -0.38853,-0.1491 -4.2503,-0.76453 -8.05753,-1.28409 -7.12855,-0.97282 -9.63626,-1.20992 -12.73607,-1.20419 l -3.371308,0.006 -2.00929,1.02486 c -1.10511,0.56367 -2.4706,1.40035 -3.03443,1.8593 -0.56382,0.45894 -2.741175,2.18297 -4.838562,3.83117 -6.08833,4.78442 -6.349972,5.00612 -6.349972,5.38075 0,0.85714 1.718286,0.56652 2.838718,-0.48012 0.84875,-0.79285 4.938911,-3.96218 6.646767,-5.15036 0.592269,-0.41205 1.846889,-1.33532 2.788039,-2.05172 0.94115,-0.71639 2.16569,-1.63889 2.72119,-2.05 l 1.01001,-0.74747 3.984528,-0.0194 c 3.86878,-0.0188 5.08916,0.0806 10.6023,0.86354 1.44217,0.20481 3.97065,0.55209 5.61885,0.77172 3.17947,0.42369 9.03039,1.84066 10.80069,2.6157 0.58374,0.25557 1.06134,0.63023 1.06134,0.83259 0,0.20236 -0.23291,0.91104 -0.51759,1.57484 -0.28468,0.6638 -0.74361,1.88117 -1.01984,2.70527 -0.27624,0.82409 -0.65312,1.83549 -0.83752,2.24754 -0.1844,0.41205 -0.74833,1.76057 -1.25319,2.99672 -0.50486,1.23615 -1.19001,2.90714 -1.52256,3.71332 -0.69901,1.69458 -0.51135,2.23105 0.73654,2.10559 0.67148,-0.0675 0.82001,-0.25354 1.45581,-1.82328 z m -3.34555,-1.24863 c 0.8211,-2.37971 1.16821,-4.84162 0.74286,-5.26885 -0.10555,-0.10601 -0.73916,0.3994 -1.40801,1.12314 -1.41984,1.53635 -2.06915,1.60924 -2.92984,0.32889 l -0.55129,-0.82009 -0.67313,0.88253 c -1.18824,1.55786 -2.8614,0.94622 -2.8614,-1.046 0,-0.97743 -0.29018,-1.03844 -0.94992,-0.19971 -0.52759,0.67071 -1.48216,1.1244 -1.99013,0.94587 -0.17485,-0.0615 -0.67987,-0.86005 -1.12225,-1.77466 -0.65702,-1.35835 -0.80038,-1.9488 -0.78269,-3.22372 0.0143,-1.02815 -0.077,-1.5608 -0.26742,-1.5608 -0.49436,0 -1.13076,1.70481 -1.13076,3.0291 0,1.55663 -0.59028,2.63705 -1.69412,3.10083 -1.27213,0.53449 -1.98881,0.0915 -2.19742,-1.35823 -0.35443,-2.463 -1.4287,-3.70507 -1.76222,-2.03747 -0.28828,1.44138 -1.64017,2.05996 -2.69267,1.23207 -0.64463,-0.50707 -0.67576,-0.62411 -0.54914,-2.06463 0.0738,-0.83989 0.16703,-1.9097 0.20711,-2.37735 0.0883,-1.03061 -0.44604,-1.33241 -0.78422,-0.44292 -0.12972,0.3412 -0.35061,0.69128 -0.49087,0.77796 -0.14025,0.0867 -0.613448,0.83012 -1.051548,1.65207 -0.83557,1.5677 -1.40994,1.92991 -2.59048,1.63361 -0.70006,-0.1757 -1.37804,-1.29591 -1.37804,-2.2769 0,-1.08932 -0.78226,-0.6418 -1.54142,0.88183 -0.71579,1.43657 -1.71821,2.49539 -2.362479,2.49539 -0.208931,0 -0.717006,-0.33713 -1.129055,-0.74918 -0.41205,-0.41205 -0.903383,-0.74918 -1.091853,-0.74918 -0.364389,0 -1.616724,1.49396 -1.616724,1.92866 0,0.38608 1.150343,0.75712 3.24645,1.04713 1.030124,0.14253 2.434841,0.38039 3.121591,0.52858 0.68675,0.14818 2.03527,0.42456 2.99672,0.61417 4.958688,0.97789 24.989868,5.92934 25.319068,6.25854 0.0729,0.0729 0.35102,0.0997 0.61808,0.0596 0.37196,-0.0559 0.68714,-0.65719 1.34722,-2.57023 z m 8.67631,1.62322 c 0.0849,-0.13735 0.042,-0.24972 -0.0954,-0.24972 -0.13735,0 -0.31918,0.11237 -0.40406,0.24972 -0.0849,0.13735 -0.042,0.24973 0.0954,0.24973 0.13735,0 0.31918,-0.11238 0.40407,-0.24973 z m 2.80444,-0.66409 c 1.17382,-0.16548 1.20584,-0.58454 0.0447,-0.58454 -0.78466,0 -2.47451,0.60806 -2.47451,0.89041 0,0.0917 0.30904,0.0939 0.68675,0.005 0.37771,-0.089 1.16211,-0.22884 1.7431,-0.31075 z m -3.11321,-1.11722 c 1.47047,-0.74229 1.65898,-0.77553 3.67635,-0.64809 1.96897,0.12437 2.3298,0.0667 4.87341,-0.77839 2.96971,-0.9867 3.47362,-1.43553 3.19757,-2.84809 -0.10055,-0.51454 -0.28027,-0.68674 -0.7167,-0.68674 -0.37225,0 -0.82314,-0.3155 -1.24917,-0.87405 -0.73264,-0.96054 -1.49364,-1.19988 -1.23621,-0.38879 0.23111,0.72816 -0.75261,2.47261 -1.50013,2.66022 -0.80439,0.20189 -1.21548,-0.15589 -1.58104,-1.37602 -0.28946,-0.96612 -1.63358,-2.39134 -2.02634,-2.1486 -0.11004,0.068 -0.14085,0.86125 -0.0685,1.76277 0.15122,1.8838 -0.1621,2.70606 -1.24438,3.26573 -0.65375,0.33806 -0.73964,0.32058 -1.33125,-0.27104 -0.81719,-0.81718 -0.96559,-0.79881 -1.58019,0.19563 -0.28147,0.45543 -0.74014,1.03473 -1.01928,1.28734 -0.60222,0.54501 -0.68598,1.63053 -0.1258,1.63053 0.20994,0 1.07918,-0.35209 1.93165,-0.78241 z m 52.01337,-4.89888 c 0.21583,-0.51506 0.62047,-1.77931 0.89921,-2.80943 0.50961,-1.88338 0.50749,-2.3133 -0.0258,-5.24427 -0.13745,-0.75542 -0.18057,-1.96348 -0.0958,-2.68456 0.0941,-0.80107 0.0581,-1.31107 -0.0927,-1.31107 -0.13573,0 -0.59572,0.56133 -1.0222,1.24739 -1.34458,2.16298 -3.45179,2.63013 -4.16493,0.92334 -0.28933,-0.69246 -0.28029,-1.04812 0.0631,-2.48335 0.36476,-1.5245 0.29363,-2.41856 -0.1431,-1.79881 -0.45749,0.6492 -1.8968,1.61198 -2.40984,1.61198 -1.0146,0 -1.25989,-0.62648 -1.26203,-3.2232 -0.002,-2.07848 -0.0825,-2.53679 -0.61046,-3.46162 -0.33468,-0.58627 -0.72476,-1.0272 -0.86685,-0.97984 -0.14209,0.0474 -0.2607,0.7518 -0.26358,1.56542 -0.004,1.11116 -0.1812,1.83766 -0.71236,2.91935 -0.76029,1.54829 -1.59944,2.18098 -2.89272,2.18098 -0.92807,0 -1.28066,-0.57876 -1.36131,-2.2345 -0.0459,-0.94131 -0.22754,-1.39953 -0.82444,-2.07936 -1.00896,-1.14915 -1.18199,-2.23057 -0.71504,-4.46886 0.58734,-2.81532 0.46733,-3.55915 -0.40615,-2.51743 -0.83205,0.99233 -1.32881,2.64468 -1.28366,4.2698 0.0555,1.99873 -0.53063,3.3104 -1.69487,3.79264 -1.68578,0.69828 -2.6729,-0.72778 -2.70689,-3.91054 -0.0223,-2.08842 -0.42303,-3.35997 -1.63372,-5.18396 -0.4854,-0.73127 -0.88255,-1.4678 -0.88255,-1.63672 0,-0.16891 -0.13291,-0.26281 -0.29536,-0.20866 -0.19512,0.065 -0.31045,0.89841 -0.33983,2.45563 -0.0516,2.73241 -0.17266,3.11962 -1.13076,3.61507 -1.00139,0.51784 -1.85068,0.45359 -2.59791,-0.19653 -0.96273,-0.83761 -1.08092,-2.51614 -0.37451,-5.31865 0.57082,-2.26458 0.67732,-4.02412 0.26833,-4.43311 -0.13265,-0.13265 -0.72988,0.78099 -1.46114,2.23522 -0.9646,1.91825 -1.26928,2.81683 -1.38436,4.08279 -0.15569,1.71269 -0.66229,3.21662 -1.24698,3.70187 -1.29633,1.07586 -3.71485,0.28377 -4.64286,-1.52057 -0.71338,-1.38705 -1.86821,-2.54576 -2.35214,-2.36006 -0.19469,0.0747 -0.42232,0.47753 -0.50585,0.89515 -0.28622,1.43112 -2.56721,2.1501 -3.66614,1.15559 -0.66417,-0.60107 -1.24755,-2.48295 -1.24755,-4.02439 0,-1.56699 -0.27603,-1.83144 -0.97891,-0.93787 -0.35497,0.45127 -0.5199,1.02532 -0.52085,1.8129 -0.004,3.53969 -1.85664,5.09812 -3.74451,3.15033 -0.46594,-0.48072 -0.96172,-0.87404 -1.10175,-0.87404 -0.3607,0 -2.64415,2.29185 -2.64415,2.65387 0,0.36369 1.91259,0.52827 8.11612,0.6984 5.03075,0.13797 8.98213,0.65113 10.93205,1.41971 1.66516,0.65634 1.89974,0.86232 2.45359,2.15441 0.25105,0.58568 0.54474,1.06687 0.65263,1.06931 0.10789,0.002 1.16379,0.10629 2.34643,0.23077 2.01016,0.21159 2.31932,0.32653 4.74482,1.76408 1.427,0.84577 3.16443,1.96654 3.86095,2.4906 1.85617,1.39659 4.46919,2.61406 6.59999,3.07512 5.58026,1.20744 6.76818,1.50665 8.36244,2.10632 1.79034,0.67342 4.20922,1.869 4.84453,2.3945 0.68315,0.56507 1.26616,2.27478 1.27171,3.7294 0.006,1.65714 0.32959,1.83841 0.89065,0.49946 z m -29.72863,-1.08235 c 3.82792,-1.24455 4.0656,-1.403 3.64129,-2.42739 -0.4685,-1.13105 -3.3557,-4.17331 -3.73698,-3.93767 -0.18152,0.11219 -0.26019,0.43315 -0.18227,0.74362 0.24805,0.98829 -0.20282,1.97576 -1.14706,2.51224 -0.49183,0.27944 -1.1878,0.71809 -1.5466,0.97478 -0.56569,0.4047 -0.75298,0.42504 -1.40962,0.15305 -0.41648,-0.17252 -0.87097,-0.52615 -1.00996,-0.78586 -0.35218,-0.65806 -0.65188,-0.38071 -0.78418,0.72568 -0.0982,0.82081 0.0565,1.86202 0.45055,3.03319 0.17951,0.53354 2.00789,0.21683 5.72483,-0.99164 z m 10.25569,-3.50248 c 0.17285,-0.27968 -2.75581,-3.21914 -3.20731,-3.21914 -0.28221,0 0.31587,0.96219 1.51345,2.43484 0.86595,1.06484 1.37484,1.30047 1.69386,0.7843 z m -83.175956,-0.47214 c -0.2747,-0.11805 -0.836586,-0.2208 -1.248635,-0.22835 -0.572147,-0.0105 -0.660664,0.0435 -0.374591,0.22835 0.206025,0.13314 0.767911,0.2359 1.248635,0.22835 0.714178,-0.0112 0.782692,-0.053 0.374591,-0.22835 z m 60.038656,-12.08171 c 0.41388,-0.60155 0.92497,-1.15991 1.13577,-1.2408 0.72204,-0.27707 0.38357,-0.6622 -0.58196,-0.6622 -1.1188,0 -2.06623,0.64126 -2.63659,1.78457 -0.47019,0.94253 -0.33499,1.21215 0.60783,1.21215 0.57227,0 0.87888,-0.22737 1.47495,-1.09372 z m -6.87358,0.22585 c 0.15207,-0.2713 0.52437,-0.88006 0.82733,-1.35278 0.62978,-0.98267 0.55441,-1.27553 -0.32825,-1.27553 -1.27938,0 -3.22051,1.53343 -3.05157,2.41064 0.0522,0.27125 0.3917,0.5234 0.83421,0.61963 1.07206,0.23314 1.40609,0.155 1.71828,-0.40196 z m -6.30815,-1.21108 c 0.53606,-1.36647 0.45546,-1.66695 -0.44712,-1.66695 -0.78864,0 -2.08328,1.32523 -2.08328,2.1325 0,0.44187 0.16474,0.60685 0.68675,0.68777 1.19229,0.18481 1.35981,0.08 1.84365,-1.15332 z m -6.56069,-0.40554 c 0.26204,-0.54237 0.4145,-1.04806 0.33879,-1.12377 -0.3775,-0.3775 -1.8247,-0.0867 -2.53251,0.50887 -0.91526,0.77014 -0.95701,1.04183 -0.20645,1.34352 1.26398,0.50806 1.89526,0.31642 2.40017,-0.72862 z m -58.984138,8.56118 c -0.09157,-0.0916 -0.166485,-0.49895 -0.166485,-0.9053 0,-0.57131 -0.289053,-1.00064 -1.27501,-1.89376 -1.268772,-1.1493 -2.470895,-3.08553 -2.470895,-3.9798 0,-0.25798 0.224755,-0.67246 0.499454,-0.92106 0.669093,-0.60552 0.62926,-1.40976 -0.124863,-2.52102 -0.713084,-1.05079 -0.78555,-1.55327 -0.253453,-1.75746 0.347678,-0.13342 2.62444,1.10687 2.625413,1.43021 2.45e-4,0.0817 0.285747,0.47497 0.634448,0.87405 0.893261,1.0223 2.327265,4.01133 2.564551,5.34554 0.236986,1.33252 -0.201947,3.13407 -0.962483,3.95041 -0.528504,0.56729 -0.78942,0.65945 -1.070677,0.37819 z m 0.143461,-6.24773 c -0.397,-0.78265 -0.836213,-1.46112 -0.97603,-1.50773 -0.139817,-0.0466 -0.557452,0.35284 -0.928078,0.88765 -0.592713,0.85529 -0.63773,1.0517 -0.373811,1.63093 0.217507,0.47738 0.48752,0.65855 0.981484,0.65855 0.374787,0 0.946729,0.21629 1.270982,0.48065 0.588819,0.48005 0.589649,0.4799 0.668411,-0.12321 0.04337,-0.33212 -0.245958,-1.2442 -0.642958,-2.02684 z m 8.085751,-0.64168 c -0.983226,-1.28908 -1.211146,-2.14537 -1.029287,-3.86703 0.09052,-0.85699 0.276468,-1.62731 0.413208,-1.71182 0.368495,-0.22775 1.382796,0.82955 1.980703,2.06466 0.426867,0.88179 0.491986,1.32858 0.348837,2.39339 -0.282525,2.10157 -0.738099,2.39956 -1.713461,1.1208 z m 31.041596,-1.22166 c -0.4602,-0.85989 -0.11707,-2.46758 0.88223,-4.13354 0.69371,-1.15651 1.00464,-2.04028 1.22952,-3.49476 0.35141,-2.27276 0.81772,-2.63445 1.65009,-1.27989 0.74684,1.21535 1.0682,2.64183 0.87917,3.90242 -0.13865,0.92454 -0.41934,1.36337 -1.66888,2.60903 -0.82621,0.82365 -1.61477,1.82047 -1.75236,2.21515 -0.29636,0.85013 -0.82024,0.92812 -1.21977,0.18159 z m 3.1378,-4.61388 c 0.47096,-1.12718 0.48514,-1.56438 0.0352,-1.08436 -0.32987,0.35189 -0.76475,1.9889 -0.52836,1.9889 0.0634,0 0.28534,-0.40704 0.49321,-0.90454 z m 72.20076,-1.73906 c -0.0836,-0.21782 -0.0533,-0.57237 0.0673,-0.78788 0.15402,-0.27521 -0.0315,-0.80766 -0.62327,-1.78904 -0.89746,-1.48827 -1.04817,-2.29028 -0.51374,-2.73381 0.25296,-0.20994 0.53787,-0.0566 1.21911,0.65617 0.48895,0.51157 1.01467,1.17559 1.16826,1.4756 0.41629,0.81315 0.34845,2.72096 -0.11318,3.18259 -0.50269,0.50269 -1.01077,0.50116 -1.20448,-0.004 z m -50.87351,-1.2133 c -0.0611,-0.061 -0.083,-1.19444 -0.0487,-2.51867 0.0505,-1.95591 0.16296,-2.57066 0.59905,-3.27626 0.49944,-0.80812 1.75147,-1.77623 2.79579,-2.16179 0.71285,-0.26319 0.82125,0.53629 0.22722,1.67585 -0.29322,0.56251 -0.65993,1.58463 -0.81492,2.27138 -0.58803,2.60561 -0.73496,3.0297 -1.23598,3.56749 -0.46677,0.50101 -1.23915,0.72526 -1.52241,0.442 z m 44.25298,-2.03846 c -1.09584,-1.39312 -1.02171,-3.38981 0.1953,-5.26086 0.43117,-0.66289 0.95622,-1.57784 1.16678,-2.03322 0.25423,-0.54984 0.5262,-0.79925 0.80966,-0.74249 0.35582,0.0712 0.42453,0.37827 0.41294,1.84527 -0.008,0.9679 -0.15863,2.10924 -0.33553,2.53631 -0.1769,0.42707 -0.33921,1.54256 -0.36069,2.47886 -0.0377,1.64162 -0.0625,1.70509 -0.69683,1.77859 -0.4737,0.0549 -0.80718,-0.1137 -1.19163,-0.60246 z m -24.80124,-1.28428 c -0.4872,-0.51506 -1.22864,-1.25679 -1.64763,-1.64828 -1.2289,-1.14826 -1.61117,-2.22021 -1.4991,-4.20363 0.0916,-1.6204 0.15753,-1.78813 1.02534,-2.60685 0.51011,-0.48126 0.92747,-0.90374 0.92747,-0.93884 0,-0.49005 -0.84464,-2.6698 -1.12455,-2.90211 -0.48395,-0.40164 -0.47736,-0.90508 0.0143,-1.09375 0.55157,-0.21166 2.61068,1.78817 3.49912,3.39837 0.75829,1.37432 0.79905,1.89893 0.55832,7.18566 -0.0282,0.61807 0.0421,1.71375 0.15621,2.43484 0.20296,1.28308 0.19425,1.31107 -0.40813,1.31107 -0.38731,0 -0.94397,-0.34722 -1.50136,-0.93648 z m 0.48806,-4.57724 c 0.36726,-0.7198 0.4045,-2.20216 0.0685,-2.72727 -0.20195,-0.31564 -0.34049,-0.26652 -0.88032,0.31215 -0.35236,0.37772 -0.74454,0.68675 -0.87149,0.68675 -0.39569,0 -0.7974,1.0173 -0.64363,1.62996 0.0995,0.39642 0.36751,0.61735 0.83285,0.68652 0.99123,0.14735 1.15089,0.0845 1.49407,-0.58811 z"
       id="path1"
       sodipodi:nodetypes="csssscsssssssssssssssssssssssssssssssssscssssscsssssscsssssssssssssscssscssssssssssccscssscssssssssssssssssssssssssscssssssssscsssssssssssssssssssssssssssssssssssccssssssssssssssssssssscsssccsssssssssssssssssscssssssscscssssssscssssscssssssssscccsscsscsscccssssscscsscsssscsscssscssssscssssssssscsssccssssssccsscssssssssssssssscscccssssssssscsssssssssscccsssssssssccsssscsssscssssssssssssssssssssssssscsssssssssssssssssssssssssssssscssccssssscsscssssccssscccssccssssssssssscsssssssssccsssscssccsssssssssssssssssssssssssssscsssscsssssssscsssssssssssssssscssssssssssssssssssssssscsscsssscssssssssscsssssscsssscssccssssssssccssssssssssccsssscssscscsssssssssssssssssssssscsssssssscsscccsscssssssscsssssssssscsssssscsscsscssssssssccssssssssssssscsssssscsssssscsssssssssscsssssssssssssssssssscsssssssssssssssssssssssssssssssssssssssssssssscsscccssssssccccsssssccsssccsssssscsssssccsssssssssss" /></g></svg>
