<?xml version="1.0" encoding="UTF-8" standalone="no"?>
<svg
   fill="none"
   height="512"
   viewBox="0 0 512 512"
   width="512"
   version="1.1"
   id="svg2"
   sodipodi:docname="Typescript_JS_logo_2020.svg"
   inkscape:version="1.3.2 (091e20ef0f, 2023-11-25)"
   xmlns:inkscape="http://www.inkscape.org/namespaces/inkscape"
   xmlns:sodipodi="http://sodipodi.sourceforge.net/DTD/sodipodi-0.dtd"
   xmlns="http://www.w3.org/2000/svg"
   xmlns:svg="http://www.w3.org/2000/svg">
  <defs
     id="defs2" />
  <sodipodi:namedview
     id="namedview2"
     pagecolor="#505050"
     bordercolor="#eeeeee"
     borderopacity="1"
     inkscape:showpageshadow="0"
     inkscape:pageopacity="0"
     inkscape:pagecheckerboard="0"
     inkscape:deskcolor="#505050"
     inkscape:zoom="1.6054688"
     inkscape:cx="255.68856"
     inkscape:cy="260.98297"
     inkscape:window-width="1920"
     inkscape:window-height="1019"
     inkscape:window-x="0"
     inkscape:window-y="30"
     inkscape:window-maximized="1"
     inkscape:current-layer="svg2" />
  <rect
     fill="#3178c6"
     height="512"
     rx="50"
     width="512"
     id="rect2"
     style="fill:#f0c128;fill-opacity:1" />
  <path
     d="m 305.32,315.3 c 12.69,20.72 29.2,35.95 58.4,35.95 24.53,0 40.2,-12.26 40.2,-29.2 0,-20.3 -16.1,-27.49 -43.1,-39.3 l -14.8,-6.35 c -42.72,-18.2 -71.1,-41 -71.1,-89.2 0,-44.4 33.83,-78.2 86.7,-78.2 37.64,0 64.7,13.1 84.2,47.4 l -46.1,29.6 c -10.15,-18.2 -21.1,-25.37 -38.1,-25.37 -17.34,0 -28.33,11 -28.33,25.37 0,17.76 11,24.95 36.4,35.95 l 14.8,6.34 c 50.3,21.57 78.7,43.56 78.7,93 0,53.3 -41.87,82.5 -98.1,82.5 -54.98,0 -90.5,-26.2 -107.88,-60.54 z m -209.13,5.13 c 9.3,16.5 17.76,30.45 38.1,30.45 19.45,0 31.72,-7.61 31.72,-37.2 v -201.3 h 59.2 v 202.1 c 0,61.3 -35.94,89.2 -88.4,89.2 -47.4,0 -74.85,-24.53 -88.81,-54.075 z"
     id="path1" />
  <path
     d="m 344.87468,404.54245 c 10.20901,16.66909 23.49118,28.92151 46.98236,28.92151 19.7342,0 32.34059,-9.86308 32.34059,-23.49118 0,-16.3312 -12.95233,-22.1155 -34.67362,-31.61656 l -11.90649,-5.10852 c -34.36792,-14.64177 -57.19941,-32.9842 -57.19941,-71.76073 0,-35.71947 27.21598,-62.91131 69.74949,-62.91131 30.2811,0 52.05066,10.53885 67.73827,38.13294 l -37.08711,23.81298 c -8.16559,-14.64177 -16.97479,-20.40998 -30.65116,-20.40998 -13.9499,0 -22.79127,8.84942 -22.79127,20.40998 0,14.28778 8.84942,20.07208 29.28353,28.9215 l 11.90648,5.10048 c 40.46597,17.35291 63.31356,35.04369 63.31356,74.8178 0,42.87945 -33.6841,66.37063 -78.92071,66.37063 -44.231,0 -72.80657,-21.0777 -86.78865,-48.70397 z m -168.24351,4.12705 c 7.48178,13.27412 14.28778,24.49679 30.65116,24.49679 15.64738,0 25.5185,-6.12218 25.5185,-29.92712 V 241.29484 h 47.62595 v 162.58793 c 0,49.31539 -28.91345,71.76073 -71.11713,71.76073 -38.13295,0 -60.21626,-19.7342 -71.44698,-43.50293 z"
     id="path1-3"
     style="fill:#000000;stroke-width:1" />
</svg>
