<?xml version="1.0" encoding="UTF-8" standalone="no"?>
<svg
   version="1.1"
   height="108.36133"
   width="108.36328"
   id="svg39"
   sodipodi:docname="rust.svg"
   inkscape:version="1.3.2 (091e20ef0f, 2023-11-25)"
   xmlns:inkscape="http://www.inkscape.org/namespaces/inkscape"
   xmlns:sodipodi="http://sodipodi.sourceforge.net/DTD/sodipodi-0.dtd"
   xmlns:xlink="http://www.w3.org/1999/xlink"
   xmlns="http://www.w3.org/2000/svg"
   xmlns:svg="http://www.w3.org/2000/svg">
  <defs
     id="defs39">
    <mask
       id="holes">
      <rect
         x="-60"
         y="-60"
         width="120"
         height="120"
         fill="#ffffff"
         id="rect35" />
      <circle
         id="hole"
         cy="-40"
         r="3"
         cx="0" />
      <use
         xlink:href="#hole"
         transform="rotate(72)"
         id="use36" />
      <use
         xlink:href="#hole"
         transform="rotate(144)"
         id="use37" />
      <use
         xlink:href="#hole"
         transform="rotate(-144)"
         id="use38" />
      <use
         xlink:href="#hole"
         transform="rotate(-72)"
         id="use39" />
    </mask>
    <mask
       maskUnits="userSpaceOnUse"
       id="mask51">
      <g
         id="g55"
         transform="translate(-53,-53)">
        <rect
           x="-7"
           y="-7"
           width="120"
           height="120"
           fill="#ffffff"
           id="rect51" />
        <circle
           id="circle51"
           cy="13"
           r="3"
           cx="53" />
        <use
           xlink:href="#hole"
           transform="rotate(72,-9.9741209,62.974121)"
           id="use52" />
        <use
           xlink:href="#hole"
           transform="rotate(144,17.889628,35.110372)"
           id="use53" />
        <use
           xlink:href="#hole"
           transform="rotate(-144,35.110372,17.889628)"
           id="use54" />
        <use
           xlink:href="#hole"
           transform="rotate(-72,62.974121,-9.9741209)"
           id="use55" />
      </g>
    </mask>
  </defs>
  <sodipodi:namedview
     id="namedview39"
     pagecolor="#505050"
     bordercolor="#eeeeee"
     borderopacity="1"
     inkscape:showpageshadow="0"
     inkscape:pageopacity="0"
     inkscape:pagecheckerboard="0"
     inkscape:deskcolor="#505050"
     inkscape:zoom="5.483413"
     inkscape:cx="54.436899"
     inkscape:cy="50.515983"
     inkscape:window-width="1920"
     inkscape:window-height="1019"
     inkscape:window-x="0"
     inkscape:window-y="30"
     inkscape:window-maximized="1"
     inkscape:current-layer="svg39" />
  <rect
     fill="#3178c6"
     height="107.93179"
     rx="10.540215"
     width="107.93179"
     id="rect2"
     style="fill:#ffffff;fill-opacity:1;stroke-width:1"
     x="0"
     y="0" />
  <path
     id="path60"
     style="color:#000000;fill:#000000;stroke-width:0.999998;stroke-linejoin:round;-inkscape-stroke:none"
     d="m 54.181644,34.670423 a 0.96443234,0.96443234 0 0 0 -0.827471,0.468355 l -1.716469,2.860362 c -0.30076,0.02497 -0.600784,0.05171 -0.899041,0.08538 l -2.238818,-2.467345 a 0.96443234,0.96443234 0 0 0 -0.902809,-0.297588 0.96443234,0.96443234 0 0 0 -0.719484,0.62029 l -1.125058,3.139114 c -0.290531,0.08367 -0.580713,0.167902 -0.867653,0.259918 l -2.67578,-1.982664 A 0.96443234,0.96443234 0 0 0 41.264815,37.23947 0.96443234,0.96443234 0 0 0 40.68094,37.98909 l -0.493469,3.307372 c -0.264255,0.136964 -0.527584,0.274994 -0.78729,0.419385 L 36.377843,40.28818 a 0.96443234,0.96443234 0 0 0 -1.374933,0.919133 l 0.163234,3.351318 c -0.229082,0.182961 -0.455647,0.368173 -0.679304,0.557507 l -3.255889,-0.813659 a 0.96443234,0.96443234 0 0 0 -1.169007,1.169006 l 0.813659,3.255889 c -0.189334,0.223657 -0.374545,0.450223 -0.557507,0.679306 l -3.351318,-0.163236 a 0.96443234,0.96443234 0 0 0 -0.919133,1.374934 l 1.427669,3.022338 c -0.144391,0.259707 -0.282421,0.523035 -0.419385,0.78729 l -3.307371,0.493469 a 0.96443234,0.96443234 0 0 0 -0.632846,1.528121 l 1.982665,2.675781 c -0.09202,0.286939 -0.176252,0.577121 -0.259919,0.867651 l -3.139114,1.125058 a 0.96443234,0.96443234 0 0 0 -0.322701,1.622294 l 2.467343,2.238817 c -0.03368,0.298257 -0.0604,0.598282 -0.08538,0.899043 l -2.86036,1.716467 a 0.96443234,0.96443234 0 0 0 0,1.654941 l 2.86036,1.716467 c 0.02498,0.300762 0.05171,0.600786 0.08538,0.899044 l -2.467343,2.238815 a 0.96443234,0.96443234 0 0 0 0.322701,1.622294 l 3.139114,1.12506 c 0.08367,0.29053 0.167902,0.580711 0.259919,0.86765 l -1.982665,2.675782 a 0.96443234,0.96443234 0 0 0 0.632846,1.52812 l 3.307371,0.493469 c 0.136964,0.264256 0.274994,0.527584 0.419385,0.78729 l -1.427669,3.022339 a 0.96443234,0.96443234 0 0 0 0.919133,1.374932 l 3.351318,-0.163232 c 0.182962,0.229082 0.368173,0.455649 0.557507,0.679305 l -0.813659,3.255888 a 0.96443234,0.96443234 0 0 0 1.169007,1.169006 L 34.48684,91.72822 c 0.223657,0.189333 0.450222,0.374544 0.679304,0.557507 l -0.163234,3.351318 a 0.96443234,0.96443234 0 0 0 1.374933,0.919133 l 3.022338,-1.427669 c 0.259706,0.14439 0.523035,0.28242 0.78729,0.419385 l 0.493469,3.307372 a 0.96443234,0.96443234 0 0 0 1.528121,0.632849 l 2.67578,-1.98267 c 0.28694,0.09202 0.577122,0.176252 0.867653,0.259919 l 1.125058,3.139116 a 0.96443234,0.96443234 0 0 0 1.622293,0.3227 l 2.238818,-2.467345 c 0.298257,0.03368 0.598281,0.06043 0.899041,0.08539 l 1.716469,2.860355 a 0.96443234,0.96443234 0 0 0 1.65494,0 l 1.716468,-2.860355 c 0.300761,-0.02494 0.600785,-0.05169 0.899043,-0.08539 l 2.238816,2.467345 a 0.96443234,0.96443234 0 0 0 1.622294,-0.3227 l 1.125058,-3.139116 c 0.290532,-0.08367 0.580713,-0.167902 0.867652,-0.259919 l 2.675781,1.98267 a 0.96443234,0.96443234 0 0 0 1.528121,-0.632849 l 0.493468,-3.307372 c 0.264256,-0.136965 0.527584,-0.274995 0.78729,-0.419385 l 3.022339,1.427669 a 0.96443234,0.96443234 0 0 0 1.374932,-0.919133 l -0.163233,-3.351318 c 0.229081,-0.182963 0.455648,-0.368174 0.679304,-0.557507 l 3.255889,0.813657 a 0.96443234,0.96443234 0 0 0 1.169006,-1.169006 l -0.813659,-3.255888 c 0.189335,-0.223656 0.374546,-0.450223 0.557509,-0.679305 l 3.351317,0.163234 a 0.96443234,0.96443234 0 0 0 0.919133,-1.374932 l -1.42767,-3.022339 c 0.144391,-0.259706 0.282422,-0.523034 0.419386,-0.78729 l 3.30737,-0.493469 a 0.96443234,0.96443234 0 0 0 0.632849,-1.52812 L 83.264909,77.71898 c 0.09202,-0.286939 0.176251,-0.57712 0.259919,-0.86765 l 3.139108,-1.12506 a 0.96443234,0.96443234 0 0 0 0.3227,-1.622294 l -2.46734,-2.238815 c 0.03368,-0.298258 0.06043,-0.598282 0.08539,-0.899044 l 2.86035,-1.716467 a 0.96443234,0.96443234 0 0 0 0,-1.654941 l -2.86035,-1.716467 c -0.02494,-0.300761 -0.05169,-0.600786 -0.08539,-0.899043 l 2.46734,-2.238817 a 0.96443234,0.96443234 0 0 0 -0.32269,-1.622294 L 83.524828,59.99303 c -0.08367,-0.29053 -0.167903,-0.580712 -0.259919,-0.867651 l 1.982667,-2.675781 a 0.96443234,0.96443234 0 0 0 -0.632849,-1.528121 l -3.30737,-0.493469 c -0.136964,-0.264255 -0.274995,-0.527583 -0.419386,-0.78729 l 1.42767,-3.022338 a 0.96443234,0.96443234 0 0 0 -0.919133,-1.374934 l -3.351317,0.163236 c -0.182963,-0.229083 -0.368174,-0.455649 -0.557509,-0.679306 l 0.813659,-3.255889 A 0.96443234,0.96443234 0 0 0 77.132335,44.302481 L 73.876446,45.11614 C 73.65279,44.926806 73.426223,44.741594 73.197142,44.558633 l 0.163233,-3.351318 a 0.96443234,0.96443234 0 0 0 -0.728274,-0.981916 0.96443234,0.96443234 0 0 0 -0.646658,0.06278 l -3.022339,1.427668 c -0.259706,-0.14439 -0.523034,-0.28242 -0.78729,-0.419384 l -0.493468,-3.307371 a 0.96443234,0.96443234 0 0 0 -0.583876,-0.74962 0.96443234,0.96443234 0 0 0 -0.944245,0.116775 l -2.675781,1.982667 c -0.286939,-0.09202 -0.57712,-0.176251 -0.867652,-0.259919 l -1.125058,-3.139113 a 0.96443234,0.96443234 0 0 0 -0.719485,-0.62029 0.96443234,0.96443234 0 0 0 -0.902809,0.297588 l -2.238816,2.467344 c -0.298258,-0.03368 -0.598282,-0.06041 -0.899043,-0.08538 l -1.716468,-2.860361 a 0.96443234,0.96443234 0 0 0 -0.827469,-0.468355 z m -4.555484,9.422366 3.191852,3.191851 a 1.9288647,1.9288647 0 0 0 2.727262,0 l 3.191852,-3.191851 c 7.433194,1.375064 13.685841,6.049095 17.183511,12.461027 l -2.058003,4.039413 a 1.9288647,1.9288647 0 0 0 0.843794,2.594163 l 4.01681,2.046704 c 0.133479,1.044263 0.209693,2.106604 0.209693,3.188084 0,0.649853 -0.03283,1.291662 -0.08162,1.928671 h -2.489946 a 0.32147744,0.32147744 0 0 0 -0.321445,0.321445 v 1.285782 c 0,1.225508 -0.339678,2.062791 -0.831237,2.607977 -0.49156,0.545184 -1.146882,0.811238 -1.83701,0.84756 -1.380253,0.07264 -2.838163,-0.803121 -3.124046,-2.232538 -0.334376,-1.67188 -1.161046,-3.155258 -1.988943,-4.231527 -0.413949,-0.538132 -0.828193,-0.974553 -1.191607,-1.284525 -0.132539,-0.113047 -0.251025,-0.189641 -0.370416,-0.268708 2.131858,-1.259118 3.55786,-2.769271 4.226504,-4.397271 0.725575,-1.766624 0.66135,-3.624379 0.0339,-5.297569 -1.254889,-3.346383 -4.739091,-5.994454 -8.739291,-5.994454 H 35.904459 c 3.549226,-3.880529 8.324797,-6.615863 13.721697,-7.614234 z M 33.90422,59.421711 h 4.205157 v 16.072265 h -7.654416 c -0.663325,-2.240081 -1.024606,-4.612001 -1.024606,-7.071796 0,-1.08148 0.07621,-2.143821 0.209693,-3.188084 l 4.01681,-2.046704 a 1.9288647,1.9288647 0 0 0 0.843794,-2.594163 z m 15.134298,0 h 8.036132 c 1.232205,0 2.125324,0.30884 2.699639,0.739576 0.574314,0.430735 0.83626,0.974799 0.83626,1.510541 0,0.535741 -0.261946,1.079807 -0.83626,1.510542 -0.574315,0.430737 -1.467434,0.739575 -2.699639,0.739575 h -8.036132 z m 0,11.572031 h 6.107461 c 1.675408,0 2.624663,0.682183 3.304859,1.75916 0.680197,1.076978 1.042043,2.571826 1.362377,4.093404 0.320331,1.521579 0.597919,3.065642 1.191607,4.274219 0.593686,1.208577 1.582023,2.088139 3.141625,2.088139 h 9.905789 c -0.578969,0.777948 -1.206275,1.516573 -1.870911,2.219981 l -4.472611,-0.708184 a 1.9288647,1.9288647 0 0 0 -2.20617,1.60346 l -0.709439,4.475121 c -3.21375,1.521368 -6.809598,2.374426 -10.611461,2.374426 -3.801865,0 -7.397713,-0.853058 -10.611463,-2.374426 l -0.70944,-4.475121 a 1.9288647,1.9288647 0 0 0 -2.20617,-1.60346 l -4.472609,0.708184 c -0.664638,-0.703408 -1.291944,-1.442033 -1.870913,-2.219981 h 20.19204 a 0.32147744,0.32147744 0 0 0 0.321445,-0.321445 v -7.071798 a 0.32147744,0.32147744 0 0 0 -0.321445,-0.321445 h -5.464571 z" />
</svg>
